<svg xmlns="http://www.w3.org/2000/svg" xmlns:xlink="http://www.w3.org/1999/xlink" width="22" height="22"><rect width="100%" height="100%" fill="none"/><defs><path id="a" d="M18.875 4.812v12.375c0 .932-.756 1.688-1.688 1.688H14.19v-6.23h2.13l.306-2.376H14.19V8.75c0-.69.19-1.157 1.177-1.157h1.259V5.47a16.921 16.921 0 0 0-1.835-.095c-1.814 0-3.059 1.107-3.059 3.143v1.754H9.594v2.377h2.14v6.226H4.813a1.688 1.688 0 0 1-1.687-1.688V4.813c0-.931.756-1.687 1.687-1.687h12.375c.932 0 1.688.756 1.688 1.687z"/></defs><g class="currentLayer"><g fill-rule="evenodd" class="selected"><mask id="b" fill="#fff"><use xlink:href="#a"/></mask><g mask="url(#b)"><path d="M0 0h22v22H0z"/></g></g></g></svg>