<svg xmlns="http://www.w3.org/2000/svg" xmlns:xlink="http://www.w3.org/1999/xlink" width="22" height="22"><rect width="100%" height="100%" fill="none"/><defs><path id="a" d="M18.15 7.334c.011.16.011.32.011.48 0 4.876-3.712 10.496-10.496 10.496A10.43 10.43 0 0 1 2 16.654c.297.034.582.045.89.045a7.388 7.388 0 0 0 4.58-1.576 3.696 3.696 0 0 1-3.448-2.558c.228.034.456.057.696.057.331 0 .663-.046.971-.126a3.69 3.69 0 0 1-2.958-3.62V8.83a3.715 3.715 0 0 0 1.667.468 3.686 3.686 0 0 1-1.644-3.072c0-.685.182-1.314.502-1.862a10.486 10.486 0 0 0 7.607 3.86 4.165 4.165 0 0 1-.091-.845A3.687 3.687 0 0 1 14.46 3.69a3.68 3.68 0 0 1 2.695 1.165 7.263 7.263 0 0 0 2.341-.89 3.68 3.68 0 0 1-1.621 2.032A7.396 7.396 0 0 0 20 5.427a7.93 7.93 0 0 1-1.85 1.907z"/></defs><g class="currentLayer"><g fill-rule="evenodd" class="selected"><mask id="b" fill="#fff"><use xlink:href="#a"/></mask><g mask="url(#b)"><path d="M0 0h22v22H0z"/></g></g></g></svg>