<svg xmlns="http://www.w3.org/2000/svg" xmlns:xlink="http://www.w3.org/1999/xlink" width="22" height="22"><rect id="backgroundrect" width="100%" height="100%" x="0" y="0" fill="none" stroke="none"/>
    <defs>
        <path id="a" d="M15.328 9.573c.411-1.146 1.596-4.462 1.596-5.523 0-.936-.552-1.72-1.537-1.72-1.567 0-2.974 4.63-3.413 5.734C11.633 7.062 10.037 2 8.63 2c-1.093 0-1.606.805-1.606 1.818 0 1.24 1.202 4.457 1.638 5.695-.221-.081-.46-.151-.703-.151-.823 0-1.698 1.023-1.698 1.849 0 .313.172.752.281 1.044-1.297.352-1.796 1.216-1.796 2.52-.004 2.54 2.4 5.225 5.783 5.225 4.148 0 6.729-3.115 6.729-7.133 0-1.515-.243-2.883-1.93-3.294zm-1.245-3.776c.14-.433.742-2.26 1.304-2.26.303 0 .384.312.384.562 0 .671-1.357 4.38-1.656 5.203l-1.195-.211 1.163-3.294zM8.128 3.698c0-.418.51-1.607 1.627 1.656l1.217 3.526c-.549-.046-.974-.105-1.245.05-.383-1.013-1.6-4.209-1.6-5.232zm-.081 6.88c1.03 0 2.359 3.326 2.359 3.776 0 .18-.172.4-.373.4-.735 0-2.703-2.703-2.703-3.434.003-.27.446-.742.717-.742zm6.48 6.55c-1.024 1.125-2.332 1.708-3.857 1.708-2.089 0-3.738-1.146-4.532-3.104-.601-1.526.133-2.401.724-2.401.4 0 1.91 2.12 1.91 2.57 0 .172-.272.292-.412.292-.566 0-.788-.545-1.797-1.807-1.044 1.044.721 3.055 2.05 3.055.917 0 1.515-.851 1.336-1.477.13 0 .292.01.411-.021.039.953.32 2.088 1.466 2.17 0-.033.07-.25.07-.261 0-.612-.372-1.146-.372-1.768 0-.995.763-1.959 1.536-2.521.281-.211.622-.341.953-.46.34-.13.703-.282.963-.542-.039-.394-.2-.742-.594-.742-.974 0-4.24.14-4.24-1.396 0-.235.004-.46.612-.46 1.135 0 4.018.281 4.862 1.023.636.566.854 3.98-1.09 6.142zm-3.467-4.43c.34.109.692.14 1.044.211-.26.19-.492.422-.714.671-.098-.298-.218-.59-.33-.882z"/>
    </defs>
    
<g class="currentLayer" style=""><title>Layer 1</title><g fill="#000000" fill-rule="evenodd" id="svg_1" class="selected" fill-opacity="1">
        <mask id="b" fill="#fff">
            <use xlink:href="#a" id="svg_2"/>
        </mask>
        <g fill="#000000" mask="url(#b)" id="svg_3" fill-opacity="1">
            <path d="M0 0h22v22H0z" id="svg_4" fill="#000000" fill-opacity="1"/>
        </g>
    </g></g></svg>