<svg xmlns="http://www.w3.org/2000/svg" xmlns:xlink="http://www.w3.org/1999/xlink" width="22" height="22"><rect width="100%" height="100%" fill="none"/><defs><path id="a" d="M17.75 3.125H4.246a1.13 1.13 0 0 0-1.121 1.136v13.478a1.13 1.13 0 0 0 1.121 1.136H17.75c.619 0 1.125-.51 1.125-1.136V4.261c0-.626-.506-1.136-1.125-1.136zm-9.865 13.5H5.551V9.109h2.338v7.516h-.004zM6.718 8.082a1.354 1.354 0 0 1 0-2.707c.745 0 1.353.608 1.353 1.354 0 .748-.604 1.353-1.353 1.353zm9.918 8.543H14.3v-3.656c0-.872-.017-1.994-1.213-1.994-1.216 0-1.402.95-1.402 1.93v3.72H9.35V9.109h2.24v1.026h.031c.313-.59 1.076-1.213 2.212-1.213 2.362 0 2.802 1.558 2.802 3.583v4.12z"/></defs><g class="currentLayer"><g fill-rule="evenodd" class="selected"><mask id="b" fill="#fff"><use xlink:href="#a"/></mask><g mask="url(#b)"><path d="M0 0h22v22H0z"/></g></g></g></svg>