<svg width="512" height="512" xmlns="http://www.w3.org/2000/svg" fill="#a0a6b8"><path d="M507.203 205.836C487.977 105.187 406.813 24.023 306.164 4.797 126.117-29.594-29.594 126.117 4.797 306.164c19.227 100.648 100.391 181.813 201.039 201.039 180.047 34.391 335.758-121.32 301.367-301.367zM374.625 374.625C368.375 380.875 360.188 384 352 384s-16.375-3.125-22.625-9.375l-96-96c-6-6-9.375-14.125-9.375-22.625V128c0-17.688 14.328-32 32-32s32 14.313 32 32v114.75l86.625 86.625c12.5 12.5 12.5 32.75 0 45.25z"/></svg>